<svg xmlns="http://www.w3.org/2000/svg" width="800" height="1129" viewBox="0 0 800 1129"><rect width="800" height="1129" fill="#f4f4f4"/><rect x="0" y="0" width="800" height="70" fill="#ddd" stroke="#555" stroke-width="1.5"/><rect x="40" y="12" width="46" height="46" fill="#eee" stroke="#555" stroke-width="1.5"/><line x1="40" y1="12" x2="86" y2="58" stroke="#aaa"/><line x1="86" y1="12" x2="40" y2="58" stroke="#aaa"/><text x="63" y="39" font-family="Arial" font-size="11" fill="#666" text-anchor="middle">Logo</text><text x="100" y="32" font-family="Arial" font-size="18" fill="#222" text-anchor="start" font-weight="bold">SMA Katolik Frateran Surabaya</text><text x="100" y="52" font-family="Arial" font-size="12" fill="#333" text-anchor="start">Hati Mengabdi, Prestasi Menginspirasi</text><rect x="0" y="70" width="800" height="36" fill="#bbb" stroke="#555" stroke-width="1.5"/><text x="68" y="93" font-family="Arial" font-size="13" fill="#222" text-anchor="middle">Home</text><text x="132" y="93" font-family="Arial" font-size="13" fill="#222" text-anchor="middle">Profil</text><rect x="168" y="70" width="88" height="36" fill="#555"/><text x="212" y="93" font-family="Arial" font-size="13" fill="#fff" text-anchor="middle">Akademik</text><text x="300" y="93" font-family="Arial" font-size="13" fill="#222" text-anchor="middle">Kegiatan</text><text x="372" y="93" font-family="Arial" font-size="13" fill="#222" text-anchor="middle">SPMB</text><text x="436" y="93" font-family="Arial" font-size="13" fill="#222" text-anchor="middle">Kontak</text><rect x="0" y="106" width="800" height="90" fill="#e5e5e5" stroke="#555" stroke-width="1.5"/><text x="400" y="151" font-family="Arial" font-size="22" fill="#222" text-anchor="middle" font-weight="bold">Akademik</text><rect x="250" y="166" width="180" height="5" fill="#ccc"/><rect x="40" y="216" width="720" height="155" fill="#fff" stroke="#555" stroke-width="1.5"/><text x="60" y="246" font-family="Arial" font-size="16" fill="#222" text-anchor="start" font-weight="bold">Kurikulum</text><rect x="60" y="261" width="216" height="90" fill="#f7f7f7" stroke="#555" stroke-width="1.5"/><text x="70" y="283" font-family="Arial" font-size="13" fill="#222" text-anchor="start" font-weight="bold">Kurikulum 1</text><rect x="70" y="295" width="196" height="5" fill="#ccc"/><rect x="70" y="307" width="196" height="5" fill="#ccc"/><rect x="70" y="319" width="117.6" height="5" fill="#ccc"/><rect x="292" y="261" width="216" height="90" fill="#f7f7f7" stroke="#555" stroke-width="1.5"/><text x="302" y="283" font-family="Arial" font-size="13" fill="#222" text-anchor="start" font-weight="bold">Kurikulum 2</text><rect x="302" y="295" width="196" height="5" fill="#ccc"/><rect x="302" y="307" width="196" height="5" fill="#ccc"/><rect x="302" y="319" width="117.6" height="5" fill="#ccc"/><rect x="524" y="261" width="216" height="90" fill="#f7f7f7" stroke="#555" stroke-width="1.5"/><text x="534" y="283" font-family="Arial" font-size="13" fill="#222" text-anchor="start" font-weight="bold">Kurikulum 3</text><rect x="534" y="295" width="196" height="5" fill="#ccc"/><rect x="534" y="307" width="196" height="5" fill="#ccc"/><rect x="534" y="319" width="117.6" height="5" fill="#ccc"/><rect x="40" y="387" width="720" height="215" fill="#fff" stroke="#555" stroke-width="1.5"/><text x="60" y="417" font-family="Arial" font-size="16" fill="#222" text-anchor="start" font-weight="bold">Kelas Khusus</text><rect x="60" y="432" width="332" height="150" fill="#f7f7f7" stroke="#555" stroke-width="1.5"/><text x="70" y="454" font-family="Arial" font-size="13" fill="#222" text-anchor="start" font-weight="bold">Kelas 1</text><rect x="70" y="466" width="312" height="5" fill="#ccc"/><rect x="70" y="478" width="312" height="5" fill="#ccc"/><rect x="70" y="490" width="312" height="5" fill="#ccc"/><rect x="70" y="502" width="312" height="5" fill="#ccc"/><rect x="70" y="514" width="312" height="5" fill="#ccc"/><rect x="70" y="526" width="312" height="5" fill="#ccc"/><rect x="70" y="538" width="312" height="5" fill="#ccc"/><rect x="70" y="550" width="187.2" height="5" fill="#ccc"/><rect x="408" y="432" width="332" height="150" fill="#f7f7f7" stroke="#555" stroke-width="1.5"/><text x="418" y="454" font-family="Arial" font-size="13" fill="#222" text-anchor="start" font-weight="bold">Kelas 2</text><rect x="418" y="466" width="312" height="5" fill="#ccc"/><rect x="418" y="478" width="312" height="5" fill="#ccc"/><rect x="418" y="490" width="312" height="5" fill="#ccc"/><rect x="418" y="502" width="312" height="5" fill="#ccc"/><rect x="418" y="514" width="312" height="5" fill="#ccc"/><rect x="418" y="526" width="312" height="5" fill="#ccc"/><rect x="418" y="538" width="312" height="5" fill="#ccc"/><rect x="418" y="550" width="187.2" height="5" fill="#ccc"/><rect x="40" y="618" width="720" height="361" fill="#fff" stroke="#555" stroke-width="1.5"/><text x="60" y="648" font-family="Arial" font-size="16" fill="#222" text-anchor="start" font-weight="bold">Fasilitas Sekolah</text><rect x="60" y="663" width="158" height="120" fill="#f7f7f7" stroke="#555" stroke-width="1.5"/><rect x="68" y="671" width="142" height="80" fill="#eee" stroke="#555" stroke-width="1.5"/><line x1="68" y1="671" x2="210" y2="751" stroke="#aaa"/><line x1="210" y1="671" x2="68" y2="751" stroke="#aaa"/><text x="139" y="715" font-family="Arial" font-size="11" fill="#666" text-anchor="middle">Foto</text><rect x="68" y="759" width="142" height="5" fill="#ccc"/><rect x="68" y="771" width="85.2" height="5" fill="#ccc"/><rect x="234" y="663" width="158" height="120" fill="#f7f7f7" stroke="#555" stroke-width="1.5"/><rect x="242" y="671" width="142" height="80" fill="#eee" stroke="#555" stroke-width="1.5"/><line x1="242" y1="671" x2="384" y2="751" stroke="#aaa"/><line x1="384" y1="671" x2="242" y2="751" stroke="#aaa"/><text x="313" y="715" font-family="Arial" font-size="11" fill="#666" text-anchor="middle">Foto</text><rect x="242" y="759" width="142" height="5" fill="#ccc"/><rect x="242" y="771" width="85.2" height="5" fill="#ccc"/><rect x="408" y="663" width="158" height="120" fill="#f7f7f7" stroke="#555" stroke-width="1.5"/><rect x="416" y="671" width="142" height="80" fill="#eee" stroke="#555" stroke-width="1.5"/><line x1="416" y1="671" x2="558" y2="751" stroke="#aaa"/><line x1="558" y1="671" x2="416" y2="751" stroke="#aaa"/><text x="487" y="715" font-family="Arial" font-size="11" fill="#666" text-anchor="middle">Foto</text><rect x="416" y="759" width="142" height="5" fill="#ccc"/><rect x="416" y="771" width="85.2" height="5" fill="#ccc"/><rect x="582" y="663" width="158" height="120" fill="#f7f7f7" stroke="#555" stroke-width="1.5"/><rect x="590" y="671" width="142" height="80" fill="#eee" stroke="#555" stroke-width="1.5"/><line x1="590" y1="671" x2="732" y2="751" stroke="#aaa"/><line x1="732" y1="671" x2="590" y2="751" stroke="#aaa"/><text x="661" y="715" font-family="Arial" font-size="11" fill="#666" text-anchor="middle">Foto</text><rect x="590" y="759" width="142" height="5" fill="#ccc"/><rect x="590" y="771" width="85.2" height="5" fill="#ccc"/><rect x="60" y="799" width="158" height="120" fill="#f7f7f7" stroke="#555" stroke-width="1.5"/><rect x="68" y="807" width="142" height="80" fill="#eee" stroke="#555" stroke-width="1.5"/><line x1="68" y1="807" x2="210" y2="887" stroke="#aaa"/><line x1="210" y1="807" x2="68" y2="887" stroke="#aaa"/><text x="139" y="851" font-family="Arial" font-size="11" fill="#666" text-anchor="middle">Foto</text><rect x="68" y="895" width="142" height="5" fill="#ccc"/><rect x="68" y="907" width="85.2" height="5" fill="#ccc"/><rect x="234" y="799" width="158" height="120" fill="#f7f7f7" stroke="#555" stroke-width="1.5"/><rect x="242" y="807" width="142" height="80" fill="#eee" stroke="#555" stroke-width="1.5"/><line x1="242" y1="807" x2="384" y2="887" stroke="#aaa"/><line x1="384" y1="807" x2="242" y2="887" stroke="#aaa"/><text x="313" y="851" font-family="Arial" font-size="11" fill="#666" text-anchor="middle">Foto</text><rect x="242" y="895" width="142" height="5" fill="#ccc"/><rect x="242" y="907" width="85.2" height="5" fill="#ccc"/><rect x="408" y="799" width="158" height="120" fill="#f7f7f7" stroke="#555" stroke-width="1.5"/><rect x="416" y="807" width="142" height="80" fill="#eee" stroke="#555" stroke-width="1.5"/><line x1="416" y1="807" x2="558" y2="887" stroke="#aaa"/><line x1="558" y1="807" x2="416" y2="887" stroke="#aaa"/><text x="487" y="851" font-family="Arial" font-size="11" fill="#666" text-anchor="middle">Foto</text><rect x="416" y="895" width="142" height="5" fill="#ccc"/><rect x="416" y="907" width="85.2" height="5" fill="#ccc"/><rect x="582" y="799" width="158" height="120" fill="#f7f7f7" stroke="#555" stroke-width="1.5"/><rect x="590" y="807" width="142" height="80" fill="#eee" stroke="#555" stroke-width="1.5"/><line x1="590" y1="807" x2="732" y2="887" stroke="#aaa"/><line x1="732" y1="807" x2="590" y2="887" stroke="#aaa"/><text x="661" y="851" font-family="Arial" font-size="11" fill="#666" text-anchor="middle">Foto</text><rect x="590" y="895" width="142" height="5" fill="#ccc"/><rect x="590" y="907" width="85.2" height="5" fill="#ccc"/><rect x="60" y="935" width="680" height="5" fill="#ccc"/><rect x="60" y="947" width="408" height="5" fill="#ccc"/><rect x="0" y="999" width="800" height="130" fill="#ddd" stroke="#555" stroke-width="1.5"/><text x="40" y="1029" font-family="Arial" font-size="14" fill="#222" text-anchor="start" font-weight="bold">Kontak</text><rect x="40" y="1044" width="200" height="5" fill="#ccc"/><rect x="40" y="1056" width="200" height="5" fill="#ccc"/><rect x="40" y="1068" width="200" height="5" fill="#ccc"/><rect x="40" y="1080" width="120" height="5" fill="#ccc"/><text x="280" y="1029" font-family="Arial" font-size="14" fill="#222" text-anchor="start" font-weight="bold">Halaman</text><rect x="280" y="1044" width="200" height="5" fill="#ccc"/><rect x="280" y="1056" width="200" height="5" fill="#ccc"/><rect x="280" y="1068" width="200" height="5" fill="#ccc"/><rect x="280" y="1080" width="120" height="5" fill="#ccc"/><text x="520" y="1029" font-family="Arial" font-size="14" fill="#222" text-anchor="start" font-weight="bold">Media Sosial</text><rect x="520" y="1044" width="200" height="5" fill="#ccc"/><rect x="520" y="1056" width="200" height="5" fill="#ccc"/><rect x="520" y="1068" width="200" height="5" fill="#ccc"/><rect x="520" y="1080" width="120" height="5" fill="#ccc"/><line x1="40" y1="1104" x2="760" y2="1104" stroke="#999"/><text x="400" y="1121" font-family="Arial" font-size="11" fill="#333" text-anchor="middle">Hak Cipta</text></svg>