<svg xmlns="http://www.w3.org/2000/svg" width="800" height="1260" viewBox="0 0 800 1260"><rect width="800" height="1260" fill="#f4f4f4"/><rect x="0" y="0" width="800" height="70" fill="#ddd" stroke="#555" stroke-width="1.5"/><rect x="40" y="12" width="46" height="46" fill="#eee" stroke="#555" stroke-width="1.5"/><line x1="40" y1="12" x2="86" y2="58" stroke="#aaa"/><line x1="86" y1="12" x2="40" y2="58" stroke="#aaa"/><text x="63" y="39" font-family="Arial" font-size="11" fill="#666" text-anchor="middle">Logo</text><text x="100" y="32" font-family="Arial" font-size="18" fill="#222" text-anchor="start" font-weight="bold">SMA Katolik Frateran Surabaya</text><text x="100" y="52" font-family="Arial" font-size="12" fill="#333" text-anchor="start">Hati Mengabdi, Prestasi Menginspirasi</text><rect x="0" y="70" width="800" height="36" fill="#bbb" stroke="#555" stroke-width="1.5"/><text x="68" y="93" font-family="Arial" font-size="13" fill="#222" text-anchor="middle">Home</text><text x="132" y="93" font-family="Arial" font-size="13" fill="#222" text-anchor="middle">Profil</text><text x="212" y="93" font-family="Arial" font-size="13" fill="#222" text-anchor="middle">Akademik</text><text x="304" y="93" font-family="Arial" font-size="13" fill="#222" text-anchor="middle">Kesiswaan</text><text x="388" y="93" font-family="Arial" font-size="13" fill="#222" text-anchor="middle">Berita</text><rect x="424" y="70" width="72" height="36" fill="#555"/><text x="460" y="93" font-family="Arial" font-size="13" fill="#fff" text-anchor="middle">Galeri</text><text x="524" y="93" font-family="Arial" font-size="13" fill="#222" text-anchor="middle">SPMB</text><text x="588" y="93" font-family="Arial" font-size="13" fill="#222" text-anchor="middle">Kontak</text><rect x="0" y="106" width="800" height="90" fill="#e5e5e5" stroke="#555" stroke-width="1.5"/><text x="400" y="151" font-family="Arial" font-size="22" fill="#222" text-anchor="middle" font-weight="bold">Galeri</text><rect x="250" y="166" width="180" height="5" fill="#ccc"/><rect x="40" y="216" width="720" height="593" fill="#fff" stroke="#555" stroke-width="1.5"/><text x="60" y="246" font-family="Arial" font-size="16" fill="#222" text-anchor="start" font-weight="bold">Dokumentasi Sekolah</text><rect x="60" y="261" width="408" height="5" fill="#ccc"/><rect x="60" y="297" width="54.5" height="26" rx="13" fill="#555" stroke="#555"/><text x="87.25" y="314" font-family="Arial" font-size="12" fill="#fff" text-anchor="middle">Semua</text><rect x="122.5" y="297" width="74" height="26" rx="13" fill="#fff" stroke="#555"/><text x="159.5" y="314" font-family="Arial" font-size="12" fill="#222" text-anchor="middle">Kegiatan</text><rect x="204.5" y="297" width="74" height="26" rx="13" fill="#fff" stroke="#555"/><text x="241.5" y="314" font-family="Arial" font-size="12" fill="#222" text-anchor="middle">Prestasi</text><rect x="286.5" y="297" width="80.5" height="26" rx="13" fill="#fff" stroke="#555"/><text x="326.75" y="314" font-family="Arial" font-size="12" fill="#222" text-anchor="middle">Fasilitas</text><rect x="375" y="297" width="119.5" height="26" rx="13" fill="#fff" stroke="#555"/><text x="434.75" y="314" font-family="Arial" font-size="12" fill="#222" text-anchor="middle">Ekstrakurikuler</text><rect x="502.5" y="297" width="67.5" height="26" rx="13" fill="#fff" stroke="#555"/><text x="536.25" y="314" font-family="Arial" font-size="12" fill="#222" text-anchor="middle">Upacara</text><rect x="578" y="297" width="100" height="26" rx="13" fill="#fff" stroke="#555"/><text x="628" y="314" font-family="Arial" font-size="12" fill="#222" text-anchor="middle">Laboratorium</text><rect x="60" y="339" width="158" height="130" fill="#f7f7f7" stroke="#555" stroke-width="1.5"/><rect x="68" y="347" width="142" height="90" fill="#eee" stroke="#555" stroke-width="1.5"/><line x1="68" y1="347" x2="210" y2="437" stroke="#aaa"/><line x1="210" y1="347" x2="68" y2="437" stroke="#aaa"/><text x="139" y="396" font-family="Arial" font-size="11" fill="#666" text-anchor="middle">Foto</text><rect x="68" y="445" width="142" height="5" fill="#ccc"/><rect x="68" y="457" width="85.2" height="5" fill="#ccc"/><rect x="234" y="339" width="158" height="130" fill="#f7f7f7" stroke="#555" stroke-width="1.5"/><rect x="242" y="347" width="142" height="90" fill="#eee" stroke="#555" stroke-width="1.5"/><line x1="242" y1="347" x2="384" y2="437" stroke="#aaa"/><line x1="384" y1="347" x2="242" y2="437" stroke="#aaa"/><text x="313" y="396" font-family="Arial" font-size="11" fill="#666" text-anchor="middle">Foto</text><rect x="242" y="445" width="142" height="5" fill="#ccc"/><rect x="242" y="457" width="85.2" height="5" fill="#ccc"/><rect x="408" y="339" width="158" height="130" fill="#f7f7f7" stroke="#555" stroke-width="1.5"/><rect x="416" y="347" width="142" height="90" fill="#eee" stroke="#555" stroke-width="1.5"/><line x1="416" y1="347" x2="558" y2="437" stroke="#aaa"/><line x1="558" y1="347" x2="416" y2="437" stroke="#aaa"/><text x="487" y="396" font-family="Arial" font-size="11" fill="#666" text-anchor="middle">Foto</text><rect x="416" y="445" width="142" height="5" fill="#ccc"/><rect x="416" y="457" width="85.2" height="5" fill="#ccc"/><rect x="582" y="339" width="158" height="130" fill="#f7f7f7" stroke="#555" stroke-width="1.5"/><rect x="590" y="347" width="142" height="90" fill="#eee" stroke="#555" stroke-width="1.5"/><line x1="590" y1="347" x2="732" y2="437" stroke="#aaa"/><line x1="732" y1="347" x2="590" y2="437" stroke="#aaa"/><text x="661" y="396" font-family="Arial" font-size="11" fill="#666" text-anchor="middle">Foto</text><rect x="590" y="445" width="142" height="5" fill="#ccc"/><rect x="590" y="457" width="85.2" height="5" fill="#ccc"/><rect x="60" y="485" width="158" height="130" fill="#f7f7f7" stroke="#555" stroke-width="1.5"/><rect x="68" y="493" width="142" height="90" fill="#eee" stroke="#555" stroke-width="1.5"/><line x1="68" y1="493" x2="210" y2="583" stroke="#aaa"/><line x1="210" y1="493" x2="68" y2="583" stroke="#aaa"/><text x="139" y="542" font-family="Arial" font-size="11" fill="#666" text-anchor="middle">Foto</text><rect x="68" y="591" width="142" height="5" fill="#ccc"/><rect x="68" y="603" width="85.2" height="5" fill="#ccc"/><rect x="234" y="485" width="158" height="130" fill="#f7f7f7" stroke="#555" stroke-width="1.5"/><rect x="242" y="493" width="142" height="90" fill="#eee" stroke="#555" stroke-width="1.5"/><line x1="242" y1="493" x2="384" y2="583" stroke="#aaa"/><line x1="384" y1="493" x2="242" y2="583" stroke="#aaa"/><text x="313" y="542" font-family="Arial" font-size="11" fill="#666" text-anchor="middle">Foto</text><rect x="242" y="591" width="142" height="5" fill="#ccc"/><rect x="242" y="603" width="85.2" height="5" fill="#ccc"/><rect x="408" y="485" width="158" height="130" fill="#f7f7f7" stroke="#555" stroke-width="1.5"/><rect x="416" y="493" width="142" height="90" fill="#eee" stroke="#555" stroke-width="1.5"/><line x1="416" y1="493" x2="558" y2="583" stroke="#aaa"/><line x1="558" y1="493" x2="416" y2="583" stroke="#aaa"/><text x="487" y="542" font-family="Arial" font-size="11" fill="#666" text-anchor="middle">Foto</text><rect x="416" y="591" width="142" height="5" fill="#ccc"/><rect x="416" y="603" width="85.2" height="5" fill="#ccc"/><rect x="582" y="485" width="158" height="130" fill="#f7f7f7" stroke="#555" stroke-width="1.5"/><rect x="590" y="493" width="142" height="90" fill="#eee" stroke="#555" stroke-width="1.5"/><line x1="590" y1="493" x2="732" y2="583" stroke="#aaa"/><line x1="732" y1="493" x2="590" y2="583" stroke="#aaa"/><text x="661" y="542" font-family="Arial" font-size="11" fill="#666" text-anchor="middle">Foto</text><rect x="590" y="591" width="142" height="5" fill="#ccc"/><rect x="590" y="603" width="85.2" height="5" fill="#ccc"/><rect x="60" y="631" width="158" height="130" fill="#f7f7f7" stroke="#555" stroke-width="1.5"/><rect x="68" y="639" width="142" height="90" fill="#eee" stroke="#555" stroke-width="1.5"/><line x1="68" y1="639" x2="210" y2="729" stroke="#aaa"/><line x1="210" y1="639" x2="68" y2="729" stroke="#aaa"/><text x="139" y="688" font-family="Arial" font-size="11" fill="#666" text-anchor="middle">Foto</text><rect x="68" y="737" width="142" height="5" fill="#ccc"/><rect x="68" y="749" width="85.2" height="5" fill="#ccc"/><rect x="234" y="631" width="158" height="130" fill="#f7f7f7" stroke="#555" stroke-width="1.5"/><rect x="242" y="639" width="142" height="90" fill="#eee" stroke="#555" stroke-width="1.5"/><line x1="242" y1="639" x2="384" y2="729" stroke="#aaa"/><line x1="384" y1="639" x2="242" y2="729" stroke="#aaa"/><text x="313" y="688" font-family="Arial" font-size="11" fill="#666" text-anchor="middle">Foto</text><rect x="242" y="737" width="142" height="5" fill="#ccc"/><rect x="242" y="749" width="85.2" height="5" fill="#ccc"/><rect x="408" y="631" width="158" height="130" fill="#f7f7f7" stroke="#555" stroke-width="1.5"/><rect x="416" y="639" width="142" height="90" fill="#eee" stroke="#555" stroke-width="1.5"/><line x1="416" y1="639" x2="558" y2="729" stroke="#aaa"/><line x1="558" y1="639" x2="416" y2="729" stroke="#aaa"/><text x="487" y="688" font-family="Arial" font-size="11" fill="#666" text-anchor="middle">Foto</text><rect x="416" y="737" width="142" height="5" fill="#ccc"/><rect x="416" y="749" width="85.2" height="5" fill="#ccc"/><rect x="582" y="631" width="158" height="130" fill="#f7f7f7" stroke="#555" stroke-width="1.5"/><rect x="590" y="639" width="142" height="90" fill="#eee" stroke="#555" stroke-width="1.5"/><line x1="590" y1="639" x2="732" y2="729" stroke="#aaa"/><line x1="732" y1="639" x2="590" y2="729" stroke="#aaa"/><text x="661" y="688" font-family="Arial" font-size="11" fill="#666" text-anchor="middle">Foto</text><rect x="590" y="737" width="142" height="5" fill="#ccc"/><rect x="590" y="749" width="85.2" height="5" fill="#ccc"/><rect x="60" y="777" width="408" height="5" fill="#ccc"/><rect x="40" y="825" width="720" height="285" fill="#fff" stroke="#555" stroke-width="1.5"/><text x="60" y="855" font-family="Arial" font-size="16" fill="#222" text-anchor="start" font-weight="bold">Preview (klik foto)</text><rect x="60" y="870" width="680" height="220" fill="#666" stroke="#555" stroke-width="1.5"/><rect x="250" y="885" width="300" height="150" fill="#eee" stroke="#555" stroke-width="1.5"/><line x1="250" y1="885" x2="550" y2="1035" stroke="#aaa"/><line x1="550" y1="885" x2="250" y2="1035" stroke="#aaa"/><text x="400" y="964" font-family="Arial" font-size="11" fill="#666" text-anchor="middle">Foto Besar</text><text x="400" y="1058" font-family="Arial" font-size="12" fill="#fff" text-anchor="middle">Keterangan foto</text><rect x="365" y="1066" width="70" height="20" fill="#999" stroke="#555" stroke-width="1.5"/><text x="400" y="1080" font-family="Arial" font-size="11" fill="#fff" text-anchor="middle">Tutup</text><rect x="0" y="1130" width="800" height="130" fill="#ddd" stroke="#555" stroke-width="1.5"/><text x="40" y="1160" font-family="Arial" font-size="14" fill="#222" text-anchor="start" font-weight="bold">Kontak</text><rect x="40" y="1175" width="200" height="5" fill="#ccc"/><rect x="40" y="1187" width="200" height="5" fill="#ccc"/><rect x="40" y="1199" width="200" height="5" fill="#ccc"/><rect x="40" y="1211" width="120" height="5" fill="#ccc"/><text x="280" y="1160" font-family="Arial" font-size="14" fill="#222" text-anchor="start" font-weight="bold">Halaman</text><rect x="280" y="1175" width="200" height="5" fill="#ccc"/><rect x="280" y="1187" width="200" height="5" fill="#ccc"/><rect x="280" y="1199" width="200" height="5" fill="#ccc"/><rect x="280" y="1211" width="120" height="5" fill="#ccc"/><text x="520" y="1160" font-family="Arial" font-size="14" fill="#222" text-anchor="start" font-weight="bold">Media Sosial</text><rect x="520" y="1175" width="200" height="5" fill="#ccc"/><rect x="520" y="1187" width="200" height="5" fill="#ccc"/><rect x="520" y="1199" width="200" height="5" fill="#ccc"/><rect x="520" y="1211" width="120" height="5" fill="#ccc"/><line x1="40" y1="1235" x2="760" y2="1235" stroke="#999"/><text x="400" y="1252" font-family="Arial" font-size="11" fill="#333" text-anchor="middle">Hak Cipta</text></svg>