<svg xmlns="http://www.w3.org/2000/svg" width="800" height="1656" viewBox="0 0 800 1656"><rect width="800" height="1656" fill="#f4f4f4"/><rect x="0" y="0" width="800" height="70" fill="#ddd" stroke="#555" stroke-width="1.5"/><rect x="40" y="12" width="46" height="46" fill="#eee" stroke="#555" stroke-width="1.5"/><line x1="40" y1="12" x2="86" y2="58" stroke="#aaa"/><line x1="86" y1="12" x2="40" y2="58" stroke="#aaa"/><text x="63" y="39" font-family="Arial" font-size="11" fill="#666" text-anchor="middle">Logo</text><text x="100" y="32" font-family="Arial" font-size="18" fill="#222" text-anchor="start" font-weight="bold">SMA Katolik Frateran Surabaya</text><text x="100" y="52" font-family="Arial" font-size="12" fill="#333" text-anchor="start">Hati Mengabdi, Prestasi Menginspirasi</text><rect x="0" y="70" width="800" height="36" fill="#bbb" stroke="#555" stroke-width="1.5"/><text x="68" y="93" font-family="Arial" font-size="13" fill="#222" text-anchor="middle">Home</text><text x="132" y="93" font-family="Arial" font-size="13" fill="#222" text-anchor="middle">Profil</text><text x="212" y="93" font-family="Arial" font-size="13" fill="#222" text-anchor="middle">Akademik</text><rect x="256" y="70" width="88" height="36" fill="#555"/><text x="300" y="93" font-family="Arial" font-size="13" fill="#fff" text-anchor="middle">Kegiatan</text><text x="372" y="93" font-family="Arial" font-size="13" fill="#222" text-anchor="middle">SPMB</text><text x="436" y="93" font-family="Arial" font-size="13" fill="#222" text-anchor="middle">Kontak</text><rect x="0" y="106" width="800" height="90" fill="#e5e5e5" stroke="#555" stroke-width="1.5"/><text x="400" y="151" font-family="Arial" font-size="22" fill="#222" text-anchor="middle" font-weight="bold">Kegiatan &amp; Prestasi</text><rect x="250" y="166" width="180" height="5" fill="#ccc"/><rect x="40" y="216" width="720" height="793" fill="#fff" stroke="#555" stroke-width="1.5"/><text x="60" y="246" font-family="Arial" font-size="16" fill="#222" text-anchor="start" font-weight="bold">Kegiatan Sekolah</text><rect x="60" y="261" width="408" height="5" fill="#ccc"/><rect x="60" y="297" width="332" height="220" fill="#f7f7f7" stroke="#555" stroke-width="1.5"/><rect x="68" y="305" width="316" height="180" fill="#eee" stroke="#555" stroke-width="1.5"/><line x1="68" y1="305" x2="384" y2="485" stroke="#aaa"/><line x1="384" y1="305" x2="68" y2="485" stroke="#aaa"/><text x="226" y="399" font-family="Arial" font-size="11" fill="#666" text-anchor="middle">Video YouTube</text><rect x="68" y="493" width="316" height="5" fill="#ccc"/><rect x="68" y="505" width="189.6" height="5" fill="#ccc"/><rect x="408" y="297" width="332" height="220" fill="#f7f7f7" stroke="#555" stroke-width="1.5"/><rect x="416" y="305" width="316" height="180" fill="#eee" stroke="#555" stroke-width="1.5"/><line x1="416" y1="305" x2="732" y2="485" stroke="#aaa"/><line x1="732" y1="305" x2="416" y2="485" stroke="#aaa"/><text x="574" y="399" font-family="Arial" font-size="11" fill="#666" text-anchor="middle">Video YouTube</text><rect x="416" y="493" width="316" height="5" fill="#ccc"/><rect x="416" y="505" width="189.6" height="5" fill="#ccc"/><rect x="60" y="533" width="332" height="220" fill="#f7f7f7" stroke="#555" stroke-width="1.5"/><rect x="68" y="541" width="316" height="180" fill="#eee" stroke="#555" stroke-width="1.5"/><line x1="68" y1="541" x2="384" y2="721" stroke="#aaa"/><line x1="384" y1="541" x2="68" y2="721" stroke="#aaa"/><text x="226" y="635" font-family="Arial" font-size="11" fill="#666" text-anchor="middle">Video YouTube</text><rect x="68" y="729" width="316" height="5" fill="#ccc"/><rect x="68" y="741" width="189.6" height="5" fill="#ccc"/><rect x="408" y="533" width="332" height="220" fill="#f7f7f7" stroke="#555" stroke-width="1.5"/><rect x="416" y="541" width="316" height="180" fill="#eee" stroke="#555" stroke-width="1.5"/><line x1="416" y1="541" x2="732" y2="721" stroke="#aaa"/><line x1="732" y1="541" x2="416" y2="721" stroke="#aaa"/><text x="574" y="635" font-family="Arial" font-size="11" fill="#666" text-anchor="middle">Video YouTube</text><rect x="416" y="729" width="316" height="5" fill="#ccc"/><rect x="416" y="741" width="189.6" height="5" fill="#ccc"/><rect x="60" y="769" width="332" height="220" fill="#f7f7f7" stroke="#555" stroke-width="1.5"/><rect x="68" y="777" width="316" height="180" fill="#eee" stroke="#555" stroke-width="1.5"/><line x1="68" y1="777" x2="384" y2="957" stroke="#aaa"/><line x1="384" y1="777" x2="68" y2="957" stroke="#aaa"/><text x="226" y="871" font-family="Arial" font-size="11" fill="#666" text-anchor="middle">Video YouTube</text><rect x="68" y="965" width="316" height="5" fill="#ccc"/><rect x="68" y="977" width="189.6" height="5" fill="#ccc"/><rect x="408" y="769" width="332" height="220" fill="#f7f7f7" stroke="#555" stroke-width="1.5"/><rect x="416" y="777" width="316" height="180" fill="#eee" stroke="#555" stroke-width="1.5"/><line x1="416" y1="777" x2="732" y2="957" stroke="#aaa"/><line x1="732" y1="777" x2="416" y2="957" stroke="#aaa"/><text x="574" y="871" font-family="Arial" font-size="11" fill="#666" text-anchor="middle">Video YouTube</text><rect x="416" y="965" width="316" height="5" fill="#ccc"/><rect x="416" y="977" width="189.6" height="5" fill="#ccc"/><rect x="40" y="1025" width="720" height="481" fill="#fff" stroke="#555" stroke-width="1.5"/><text x="60" y="1055" font-family="Arial" font-size="16" fill="#222" text-anchor="start" font-weight="bold">Prestasi Siswa</text><rect x="60" y="1070" width="216" height="200" fill="#f7f7f7" stroke="#555" stroke-width="1.5"/><rect x="68" y="1078" width="200" height="160" fill="#eee" stroke="#555" stroke-width="1.5"/><line x1="68" y1="1078" x2="268" y2="1238" stroke="#aaa"/><line x1="268" y1="1078" x2="68" y2="1238" stroke="#aaa"/><text x="168" y="1162" font-family="Arial" font-size="11" fill="#666" text-anchor="middle">Poster</text><rect x="68" y="1246" width="200" height="5" fill="#ccc"/><rect x="68" y="1258" width="120" height="5" fill="#ccc"/><rect x="292" y="1070" width="216" height="200" fill="#f7f7f7" stroke="#555" stroke-width="1.5"/><rect x="300" y="1078" width="200" height="160" fill="#eee" stroke="#555" stroke-width="1.5"/><line x1="300" y1="1078" x2="500" y2="1238" stroke="#aaa"/><line x1="500" y1="1078" x2="300" y2="1238" stroke="#aaa"/><text x="400" y="1162" font-family="Arial" font-size="11" fill="#666" text-anchor="middle">Poster</text><rect x="300" y="1246" width="200" height="5" fill="#ccc"/><rect x="300" y="1258" width="120" height="5" fill="#ccc"/><rect x="524" y="1070" width="216" height="200" fill="#f7f7f7" stroke="#555" stroke-width="1.5"/><rect x="532" y="1078" width="200" height="160" fill="#eee" stroke="#555" stroke-width="1.5"/><line x1="532" y1="1078" x2="732" y2="1238" stroke="#aaa"/><line x1="732" y1="1078" x2="532" y2="1238" stroke="#aaa"/><text x="632" y="1162" font-family="Arial" font-size="11" fill="#666" text-anchor="middle">Poster</text><rect x="532" y="1246" width="200" height="5" fill="#ccc"/><rect x="532" y="1258" width="120" height="5" fill="#ccc"/><rect x="60" y="1286" width="216" height="200" fill="#f7f7f7" stroke="#555" stroke-width="1.5"/><rect x="68" y="1294" width="200" height="160" fill="#eee" stroke="#555" stroke-width="1.5"/><line x1="68" y1="1294" x2="268" y2="1454" stroke="#aaa"/><line x1="268" y1="1294" x2="68" y2="1454" stroke="#aaa"/><text x="168" y="1378" font-family="Arial" font-size="11" fill="#666" text-anchor="middle">Poster</text><rect x="68" y="1462" width="200" height="5" fill="#ccc"/><rect x="68" y="1474" width="120" height="5" fill="#ccc"/><rect x="292" y="1286" width="216" height="200" fill="#f7f7f7" stroke="#555" stroke-width="1.5"/><rect x="300" y="1294" width="200" height="160" fill="#eee" stroke="#555" stroke-width="1.5"/><line x1="300" y1="1294" x2="500" y2="1454" stroke="#aaa"/><line x1="500" y1="1294" x2="300" y2="1454" stroke="#aaa"/><text x="400" y="1378" font-family="Arial" font-size="11" fill="#666" text-anchor="middle">Poster</text><rect x="300" y="1462" width="200" height="5" fill="#ccc"/><rect x="300" y="1474" width="120" height="5" fill="#ccc"/><rect x="524" y="1286" width="216" height="200" fill="#f7f7f7" stroke="#555" stroke-width="1.5"/><rect x="532" y="1294" width="200" height="160" fill="#eee" stroke="#555" stroke-width="1.5"/><line x1="532" y1="1294" x2="732" y2="1454" stroke="#aaa"/><line x1="732" y1="1294" x2="532" y2="1454" stroke="#aaa"/><text x="632" y="1378" font-family="Arial" font-size="11" fill="#666" text-anchor="middle">Poster</text><rect x="532" y="1462" width="200" height="5" fill="#ccc"/><rect x="532" y="1474" width="120" height="5" fill="#ccc"/><rect x="0" y="1526" width="800" height="130" fill="#ddd" stroke="#555" stroke-width="1.5"/><text x="40" y="1556" font-family="Arial" font-size="14" fill="#222" text-anchor="start" font-weight="bold">Kontak</text><rect x="40" y="1571" width="200" height="5" fill="#ccc"/><rect x="40" y="1583" width="200" height="5" fill="#ccc"/><rect x="40" y="1595" width="200" height="5" fill="#ccc"/><rect x="40" y="1607" width="120" height="5" fill="#ccc"/><text x="280" y="1556" font-family="Arial" font-size="14" fill="#222" text-anchor="start" font-weight="bold">Halaman</text><rect x="280" y="1571" width="200" height="5" fill="#ccc"/><rect x="280" y="1583" width="200" height="5" fill="#ccc"/><rect x="280" y="1595" width="200" height="5" fill="#ccc"/><rect x="280" y="1607" width="120" height="5" fill="#ccc"/><text x="520" y="1556" font-family="Arial" font-size="14" fill="#222" text-anchor="start" font-weight="bold">Media Sosial</text><rect x="520" y="1571" width="200" height="5" fill="#ccc"/><rect x="520" y="1583" width="200" height="5" fill="#ccc"/><rect x="520" y="1595" width="200" height="5" fill="#ccc"/><rect x="520" y="1607" width="120" height="5" fill="#ccc"/><line x1="40" y1="1631" x2="760" y2="1631" stroke="#999"/><text x="400" y="1648" font-family="Arial" font-size="11" fill="#333" text-anchor="middle">Hak Cipta</text></svg>